<svg width="14" height="14" viewBox="0 0 14 14" fill="none" xmlns="http://www.w3.org/2000/svg">
  <path fill-rule="evenodd" clip-rule="evenodd" d="M0.25 3.75C0.25 3.30127 0.613769 2.9375 1.0625 2.9375H12.4375C12.8862 2.9375 13.25 3.30127 13.25 3.75C13.25 4.19873 12.8862 4.5625 12.4375 4.5625H1.0625C0.613769 4.5625 0.25 4.19873 0.25 3.75ZM1.875 7C1.875 6.55128 2.23877 6.1875 2.6875 6.1875H10.8125C11.2612 6.1875 11.625 6.55128 11.625 7C11.625 7.44872 11.2612 7.8125 10.8125 7.8125H2.6875C2.23877 7.8125 1.875 7.44872 1.875 7ZM4.3125 9.4375C3.86377 9.4375 3.5 9.80128 3.5 10.25C3.5 10.6987 3.86377 11.0625 4.3125 11.0625H9.1875C9.63622 11.0625 10 10.6987 10 10.25C10 9.80128 9.63622 9.4375 9.1875 9.4375H4.3125Z" fill="#0D0C22" />
</svg>